<?xml version="1.0" encoding="utf-8"?>
<!-- Generator: Adobe Illustrator 23.0.1, SVG Export Plug-In . SVG Version: 6.00 Build 0)  -->
<svg version="1.1" xmlns="http://www.w3.org/2000/svg" xmlns:xlink="http://www.w3.org/1999/xlink" x="0px" y="0px"
	 viewBox="0 0 1224 792" style="enable-background:new 0 0 1224 792;" xml:space="preserve">
<style type="text/css">
	.st0{fill:none;stroke:#7A7A7A;stroke-width:2;stroke-miterlimit:10;}
	.st1{fill:none;stroke:#3F83C4;stroke-width:1.458;stroke-miterlimit:10;}
	.st2{fill:none;stroke:#3F83C4;stroke-width:2;stroke-miterlimit:10;}
	.st3{fill:none;stroke:#7A7A7A;stroke-width:1.458;stroke-miterlimit:10;}
</style>
<g id="Layer_1">
	
		<image style="overflow:visible;" width="2501" height="1600" xlink:href="8CBD47A84968A3C3.png"  transform="matrix(0.5 0 0 0.5 -12.5 -4)">
	</image>
</g>
<g id="Layer_2">
	<g>
		<g>
			<g>
				<line class="st0" x1="761.8" y1="729.7" x2="864.1" y2="729.7"/>
				<line class="st0" x1="849.9" y1="729.7" x2="862.4" y2="717.1"/>
				<line class="st0" x1="862.4" y1="742.1" x2="849.9" y2="729.7"/>
				<line class="st0" x1="776.4" y1="729.6" x2="763.9" y2="742.2"/>
				<line class="st0" x1="763.9" y1="717.2" x2="776.4" y2="729.6"/>
			</g>
			<g>
				<line class="st0" x1="777" y1="766" x2="849.3" y2="693.6"/>
				<line class="st0" x1="839.3" y1="703.7" x2="839.3" y2="686"/>
				<line class="st0" x1="856.9" y1="703.7" x2="839.3" y2="703.7"/>
				<line class="st0" x1="787.3" y1="755.7" x2="787.3" y2="773.4"/>
				<line class="st0" x1="769.6" y1="755.7" x2="787.3" y2="755.7"/>
			</g>
			<g>
				<line class="st0" x1="813.3" y1="780.8" x2="813.3" y2="678.5"/>
				<line class="st0" x1="813.3" y1="692.7" x2="800.8" y2="680.2"/>
				<line class="st0" x1="825.8" y1="680.3" x2="813.3" y2="692.7"/>
				<line class="st0" x1="813.3" y1="766.3" x2="825.8" y2="778.8"/>
				<line class="st0" x1="800.8" y1="778.7" x2="813.3" y2="766.3"/>
			</g>
			<g>
				<line class="st0" x1="849.6" y1="766.3" x2="777.2" y2="693.9"/>
				<line class="st0" x1="787.3" y1="704" x2="769.6" y2="704"/>
				<line class="st0" x1="787.3" y1="686.3" x2="787.3" y2="704"/>
				<line class="st0" x1="839.3" y1="756" x2="857" y2="756"/>
				<line class="st0" x1="839.3" y1="773.6" x2="839.3" y2="756"/>
			</g>
		</g>
		<g>
			<g>
				<line class="st1" x1="778.7" y1="744.1" x2="847.6" y2="715.5"/>
				<line class="st1" x1="838.1" y1="719.5" x2="843" y2="707.6"/>
				<line class="st1" x1="849.9" y1="724.4" x2="838.1" y2="719.5"/>
				<line class="st1" x1="788.5" y1="740" x2="783.6" y2="751.9"/>
				<line class="st1" x1="776.7" y1="735.1" x2="788.5" y2="740"/>
			</g>
			<g>
				<line class="st1" x1="799.1" y1="764.3" x2="827.6" y2="695.4"/>
				<line class="st1" x1="823.6" y1="705" x2="818.7" y2="693"/>
				<line class="st1" x1="835.5" y1="700" x2="823.6" y2="705"/>
				<line class="st1" x1="803.1" y1="754.5" x2="808.1" y2="766.4"/>
				<line class="st1" x1="791.2" y1="759.4" x2="803.1" y2="754.5"/>
			</g>
			<g>
				<line class="st1" x1="827.7" y1="764.2" x2="799.1" y2="695.2"/>
				<line class="st1" x1="803.1" y1="704.8" x2="791.2" y2="699.9"/>
				<line class="st1" x1="808" y1="693" x2="803.1" y2="704.8"/>
				<line class="st1" x1="823.6" y1="754.3" x2="835.5" y2="759.3"/>
				<line class="st1" x1="818.7" y1="766.2" x2="823.6" y2="754.3"/>
			</g>
			<g>
				<line class="st1" x1="848.1" y1="744.2" x2="779.1" y2="715.7"/>
				<line class="st1" x1="788.7" y1="719.6" x2="776.8" y2="724.6"/>
				<line class="st1" x1="783.8" y1="707.8" x2="788.7" y2="719.6"/>
				<line class="st1" x1="838.2" y1="740.2" x2="850.2" y2="735.2"/>
				<line class="st1" x1="843.2" y1="752" x2="838.2" y2="740.2"/>
			</g>
		</g>
	</g>
	<g>
		<g>
			<g>
				<line class="st0" x1="-10.2" y1="49.8" x2="92.2" y2="49.8"/>
				<line class="st0" x1="77.9" y1="49.8" x2="90.5" y2="37.3"/>
				<line class="st0" x1="90.4" y1="62.3" x2="77.9" y2="49.8"/>
				<line class="st0" x1="4.4" y1="49.8" x2="-8.1" y2="62.3"/>
				<line class="st0" x1="-8" y1="37.3" x2="4.4" y2="49.8"/>
			</g>
			<g>
				<line class="st0" x1="5" y1="86.1" x2="77.4" y2="13.7"/>
				<line class="st0" x1="67.3" y1="23.8" x2="67.3" y2="6.1"/>
				<line class="st0" x1="84.9" y1="23.8" x2="67.3" y2="23.8"/>
				<line class="st0" x1="15.3" y1="75.8" x2="15.3" y2="93.5"/>
				<line class="st0" x1="-2.3" y1="75.8" x2="15.3" y2="75.8"/>
			</g>
			<g>
				<line class="st0" x1="41.3" y1="101" x2="41.3" y2="-1.4"/>
				<line class="st0" x1="41.3" y1="12.9" x2="28.8" y2="0.3"/>
				<line class="st0" x1="53.8" y1="0.4" x2="41.3" y2="12.9"/>
				<line class="st0" x1="41.3" y1="86.4" x2="53.8" y2="98.9"/>
				<line class="st0" x1="28.8" y1="98.8" x2="41.3" y2="86.4"/>
			</g>
			<g>
				<line class="st0" x1="77.7" y1="86.4" x2="5.3" y2="14"/>
				<line class="st0" x1="15.3" y1="24.1" x2="-2.4" y2="24.1"/>
				<line class="st0" x1="15.3" y1="6.5" x2="15.3" y2="24.1"/>
				<line class="st0" x1="67.3" y1="76.1" x2="85" y2="76.1"/>
				<line class="st0" x1="67.3" y1="93.7" x2="67.3" y2="76.1"/>
			</g>
		</g>
		<g>
			<g>
				<line class="st1" x1="6.7" y1="64.2" x2="75.7" y2="35.6"/>
				<line class="st1" x1="66.1" y1="39.6" x2="71" y2="27.7"/>
				<line class="st1" x1="78" y1="44.5" x2="66.1" y2="39.6"/>
				<line class="st1" x1="16.6" y1="60.1" x2="11.6" y2="72"/>
				<line class="st1" x1="4.7" y1="55.2" x2="16.6" y2="60.1"/>
			</g>
			<g>
				<line class="st1" x1="27.1" y1="84.4" x2="55.6" y2="15.5"/>
				<line class="st1" x1="51.7" y1="25.1" x2="46.7" y2="13.2"/>
				<line class="st1" x1="63.5" y1="20.2" x2="51.7" y2="25.1"/>
				<line class="st1" x1="31.1" y1="74.6" x2="36.1" y2="86.5"/>
				<line class="st1" x1="19.3" y1="79.5" x2="31.1" y2="74.6"/>
			</g>
			<g>
				<line class="st1" x1="55.7" y1="84.3" x2="27.2" y2="15.4"/>
				<line class="st1" x1="31.1" y1="25" x2="19.2" y2="20"/>
				<line class="st1" x1="36.1" y1="13.1" x2="31.1" y2="25"/>
				<line class="st1" x1="51.6" y1="74.5" x2="63.6" y2="79.4"/>
				<line class="st1" x1="46.7" y1="86.3" x2="51.6" y2="74.5"/>
			</g>
			<g>
				<line class="st1" x1="76.1" y1="64.3" x2="7.2" y2="35.8"/>
				<line class="st1" x1="16.8" y1="39.8" x2="4.8" y2="44.7"/>
				<line class="st1" x1="11.8" y1="27.9" x2="16.8" y2="39.8"/>
				<line class="st1" x1="66.3" y1="60.3" x2="78.2" y2="55.3"/>
				<line class="st1" x1="71.2" y1="72.2" x2="66.3" y2="60.3"/>
			</g>
		</g>
	</g>
	<g>
		<g>
			<g>
				<line class="st0" x1="47.7" y1="741.5" x2="150" y2="741.5"/>
				<line class="st0" x1="135.8" y1="741.5" x2="148.3" y2="729"/>
				<line class="st0" x1="148.2" y1="754" x2="135.8" y2="741.5"/>
				<line class="st0" x1="62.3" y1="741.5" x2="49.7" y2="754"/>
				<line class="st0" x1="49.8" y1="729" x2="62.3" y2="741.5"/>
			</g>
			<g>
				<line class="st0" x1="62.8" y1="777.8" x2="135.2" y2="705.5"/>
				<line class="st0" x1="125.1" y1="715.5" x2="125.1" y2="697.8"/>
				<line class="st0" x1="142.8" y1="715.5" x2="125.1" y2="715.5"/>
				<line class="st0" x1="73.1" y1="767.5" x2="73.1" y2="785.2"/>
				<line class="st0" x1="55.5" y1="767.5" x2="73.1" y2="767.5"/>
			</g>
			<g>
				<line class="st0" x1="99.2" y1="792.7" x2="99.2" y2="690.3"/>
				<line class="st0" x1="99.2" y1="704.6" x2="86.6" y2="692.1"/>
				<line class="st0" x1="111.6" y1="692.1" x2="99.2" y2="704.6"/>
				<line class="st0" x1="99.1" y1="778.1" x2="111.7" y2="790.6"/>
				<line class="st0" x1="86.7" y1="790.6" x2="99.1" y2="778.1"/>
			</g>
			<g>
				<line class="st0" x1="135.5" y1="778.1" x2="63.1" y2="705.7"/>
				<line class="st0" x1="73.2" y1="715.8" x2="55.5" y2="715.8"/>
				<line class="st0" x1="73.2" y1="698.2" x2="73.2" y2="715.8"/>
				<line class="st0" x1="125.2" y1="767.8" x2="142.9" y2="767.8"/>
				<line class="st0" x1="125.2" y1="785.4" x2="125.2" y2="767.8"/>
			</g>
		</g>
		<g>
			<g>
				<line class="st1" x1="64.6" y1="755.9" x2="133.5" y2="727.4"/>
				<line class="st1" x1="123.9" y1="731.3" x2="128.9" y2="719.4"/>
				<line class="st1" x1="135.8" y1="736.2" x2="123.9" y2="731.3"/>
				<line class="st1" x1="74.4" y1="751.8" x2="69.5" y2="763.7"/>
				<line class="st1" x1="62.5" y1="746.9" x2="74.4" y2="751.8"/>
			</g>
			<g>
				<line class="st1" x1="84.9" y1="776.1" x2="113.5" y2="707.2"/>
				<line class="st1" x1="109.5" y1="716.8" x2="104.6" y2="704.9"/>
				<line class="st1" x1="121.4" y1="711.9" x2="109.5" y2="716.8"/>
				<line class="st1" x1="89" y1="766.3" x2="93.9" y2="778.2"/>
				<line class="st1" x1="77.1" y1="771.2" x2="89" y2="766.3"/>
			</g>
			<g>
				<line class="st1" x1="113.6" y1="776" x2="85" y2="707.1"/>
				<line class="st1" x1="89" y1="716.7" x2="77" y2="711.7"/>
				<line class="st1" x1="93.9" y1="704.8" x2="89" y2="716.7"/>
				<line class="st1" x1="109.5" y1="766.2" x2="121.4" y2="771.1"/>
				<line class="st1" x1="104.5" y1="778.1" x2="109.5" y2="766.2"/>
			</g>
			<g>
				<line class="st1" x1="133.9" y1="756.1" x2="65" y2="727.5"/>
				<line class="st1" x1="74.6" y1="731.5" x2="62.7" y2="736.4"/>
				<line class="st1" x1="69.7" y1="719.6" x2="74.6" y2="731.5"/>
				<line class="st1" x1="124.1" y1="752" x2="136" y2="747.1"/>
				<line class="st1" x1="129" y1="763.9" x2="124.1" y2="752"/>
			</g>
		</g>
	</g>
	<g>
		<g>
			<g>
				<line class="st0" x1="898.9" y1="363.3" x2="1001.2" y2="363.3"/>
				<line class="st0" x1="987" y1="363.3" x2="999.5" y2="350.8"/>
				<line class="st0" x1="999.4" y1="375.8" x2="987" y2="363.3"/>
				<line class="st0" x1="913.4" y1="363.3" x2="900.9" y2="375.8"/>
				<line class="st0" x1="901" y1="350.8" x2="913.4" y2="363.3"/>
			</g>
			<g>
				<line class="st0" x1="914" y1="399.7" x2="986.4" y2="327.3"/>
				<line class="st0" x1="976.3" y1="337.4" x2="976.3" y2="319.6"/>
				<line class="st0" x1="994" y1="337.4" x2="976.3" y2="337.4"/>
				<line class="st0" x1="924.3" y1="389.3" x2="924.3" y2="407"/>
				<line class="st0" x1="906.7" y1="389.3" x2="924.3" y2="389.3"/>
			</g>
			<g>
				<line class="st0" x1="950.4" y1="414.5" x2="950.4" y2="312.2"/>
				<line class="st0" x1="950.4" y1="326.4" x2="937.8" y2="313.9"/>
				<line class="st0" x1="962.8" y1="313.9" x2="950.4" y2="326.4"/>
				<line class="st0" x1="950.3" y1="399.9" x2="962.9" y2="412.4"/>
				<line class="st0" x1="937.9" y1="412.4" x2="950.3" y2="399.9"/>
			</g>
			<g>
				<line class="st0" x1="986.7" y1="399.9" x2="914.3" y2="327.6"/>
				<line class="st0" x1="924.4" y1="337.6" x2="906.7" y2="337.6"/>
				<line class="st0" x1="924.4" y1="320" x2="924.4" y2="337.6"/>
				<line class="st0" x1="976.3" y1="389.6" x2="994.1" y2="389.6"/>
				<line class="st0" x1="976.3" y1="407.3" x2="976.3" y2="389.6"/>
			</g>
		</g>
		<g>
			<g>
				<line class="st1" x1="915.8" y1="377.7" x2="984.7" y2="349.2"/>
				<line class="st1" x1="975.1" y1="353.2" x2="980.1" y2="341.2"/>
				<line class="st1" x1="987" y1="358.1" x2="975.1" y2="353.2"/>
				<line class="st1" x1="925.6" y1="373.6" x2="920.7" y2="385.6"/>
				<line class="st1" x1="913.7" y1="368.7" x2="925.6" y2="373.6"/>
			</g>
			<g>
				<line class="st1" x1="936.1" y1="398" x2="964.7" y2="329"/>
				<line class="st1" x1="960.7" y1="338.6" x2="955.8" y2="326.7"/>
				<line class="st1" x1="972.6" y1="333.7" x2="960.7" y2="338.6"/>
				<line class="st1" x1="940.2" y1="388.1" x2="945.1" y2="400.1"/>
				<line class="st1" x1="928.3" y1="393" x2="940.2" y2="388.1"/>
			</g>
			<g>
				<line class="st1" x1="964.7" y1="397.8" x2="936.2" y2="328.9"/>
				<line class="st1" x1="940.2" y1="338.5" x2="928.2" y2="333.6"/>
				<line class="st1" x1="945.1" y1="326.6" x2="940.2" y2="338.5"/>
				<line class="st1" x1="960.7" y1="388" x2="972.6" y2="393"/>
				<line class="st1" x1="955.7" y1="399.9" x2="960.7" y2="388"/>
			</g>
			<g>
				<line class="st1" x1="985.1" y1="377.9" x2="916.2" y2="349.3"/>
				<line class="st1" x1="925.8" y1="353.3" x2="913.9" y2="358.2"/>
				<line class="st1" x1="920.9" y1="341.4" x2="925.8" y2="353.3"/>
				<line class="st1" x1="975.3" y1="373.8" x2="987.2" y2="368.9"/>
				<line class="st1" x1="980.2" y1="385.7" x2="975.3" y2="373.8"/>
			</g>
		</g>
	</g>
	<g>
		<g>
			<g>
				<line class="st2" x1="323.2" y1="169.4" x2="425.5" y2="169.4"/>
				<line class="st2" x1="411.3" y1="169.4" x2="423.8" y2="156.8"/>
				<line class="st2" x1="423.7" y1="181.8" x2="411.3" y2="169.4"/>
				<line class="st2" x1="337.7" y1="169.3" x2="325.2" y2="181.9"/>
				<line class="st2" x1="325.3" y1="156.9" x2="337.7" y2="169.3"/>
			</g>
			<g>
				<line class="st2" x1="338.3" y1="205.7" x2="410.7" y2="133.3"/>
				<line class="st2" x1="400.6" y1="143.4" x2="400.6" y2="125.7"/>
				<line class="st2" x1="418.3" y1="143.4" x2="400.6" y2="143.4"/>
				<line class="st2" x1="348.6" y1="195.4" x2="348.6" y2="213.1"/>
				<line class="st2" x1="331" y1="195.4" x2="348.6" y2="195.4"/>
			</g>
			<g>
				<line class="st2" x1="374.7" y1="220.5" x2="374.7" y2="118.2"/>
				<line class="st2" x1="374.7" y1="132.4" x2="362.1" y2="119.9"/>
				<line class="st2" x1="387.1" y1="120" x2="374.7" y2="132.4"/>
				<line class="st2" x1="374.6" y1="206" x2="387.2" y2="218.5"/>
				<line class="st2" x1="362.2" y1="218.4" x2="374.6" y2="206"/>
			</g>
			<g>
				<line class="st2" x1="411" y1="206" x2="338.6" y2="133.6"/>
				<line class="st2" x1="348.7" y1="143.7" x2="331" y2="143.7"/>
				<line class="st2" x1="348.7" y1="126" x2="348.7" y2="143.7"/>
				<line class="st2" x1="400.6" y1="195.7" x2="418.4" y2="195.7"/>
				<line class="st2" x1="400.6" y1="213.3" x2="400.6" y2="195.7"/>
			</g>
		</g>
		<g>
			<g>
				<line class="st3" x1="340.1" y1="183.8" x2="409" y2="155.2"/>
				<line class="st3" x1="399.4" y1="159.2" x2="404.4" y2="147.3"/>
				<line class="st3" x1="411.3" y1="164.1" x2="399.4" y2="159.2"/>
				<line class="st3" x1="349.9" y1="179.7" x2="345" y2="191.6"/>
				<line class="st3" x1="338" y1="174.8" x2="349.9" y2="179.7"/>
			</g>
			<g>
				<line class="st3" x1="360.4" y1="204" x2="389" y2="135.1"/>
				<line class="st3" x1="385" y1="144.7" x2="380.1" y2="132.7"/>
				<line class="st3" x1="396.9" y1="139.7" x2="385" y2="144.7"/>
				<line class="st3" x1="364.5" y1="194.2" x2="369.4" y2="206.1"/>
				<line class="st3" x1="352.6" y1="199.1" x2="364.5" y2="194.2"/>
			</g>
			<g>
				<line class="st3" x1="389" y1="203.9" x2="360.5" y2="134.9"/>
				<line class="st3" x1="364.5" y1="144.5" x2="352.5" y2="139.6"/>
				<line class="st3" x1="369.4" y1="132.7" x2="364.5" y2="144.5"/>
				<line class="st3" x1="385" y1="194" x2="396.9" y2="199"/>
				<line class="st3" x1="380" y1="205.9" x2="385" y2="194"/>
			</g>
			<g>
				<line class="st3" x1="409.4" y1="183.9" x2="340.5" y2="155.4"/>
				<line class="st3" x1="350.1" y1="159.3" x2="338.2" y2="164.3"/>
				<line class="st3" x1="345.2" y1="147.5" x2="350.1" y2="159.3"/>
				<line class="st3" x1="399.6" y1="179.9" x2="411.5" y2="174.9"/>
				<line class="st3" x1="404.5" y1="191.7" x2="399.6" y2="179.9"/>
			</g>
		</g>
	</g>
	<g>
		<g>
			<g>
				<line class="st2" x1="301.1" y1="600.5" x2="403.4" y2="600.5"/>
				<line class="st2" x1="389.2" y1="600.5" x2="401.7" y2="588"/>
				<line class="st2" x1="401.7" y1="613" x2="389.2" y2="600.5"/>
				<line class="st2" x1="315.7" y1="600.5" x2="303.1" y2="613"/>
				<line class="st2" x1="303.2" y1="588.1" x2="315.7" y2="600.5"/>
			</g>
			<g>
				<line class="st2" x1="316.3" y1="636.9" x2="388.6" y2="564.5"/>
				<line class="st2" x1="378.6" y1="574.6" x2="378.6" y2="556.9"/>
				<line class="st2" x1="396.2" y1="574.6" x2="378.6" y2="574.6"/>
				<line class="st2" x1="326.5" y1="626.5" x2="326.5" y2="644.2"/>
				<line class="st2" x1="308.9" y1="626.5" x2="326.5" y2="626.5"/>
			</g>
			<g>
				<line class="st2" x1="352.6" y1="651.7" x2="352.6" y2="549.4"/>
				<line class="st2" x1="352.6" y1="563.6" x2="340.1" y2="551.1"/>
				<line class="st2" x1="365.1" y1="551.1" x2="352.6" y2="563.6"/>
				<line class="st2" x1="352.6" y1="637.1" x2="365.1" y2="649.7"/>
				<line class="st2" x1="340.1" y1="649.6" x2="352.6" y2="637.1"/>
			</g>
			<g>
				<line class="st2" x1="388.9" y1="637.1" x2="316.5" y2="564.8"/>
				<line class="st2" x1="326.6" y1="574.8" x2="308.9" y2="574.8"/>
				<line class="st2" x1="326.6" y1="557.2" x2="326.6" y2="574.8"/>
				<line class="st2" x1="378.6" y1="626.8" x2="396.3" y2="626.8"/>
				<line class="st2" x1="378.6" y1="644.5" x2="378.6" y2="626.8"/>
			</g>
		</g>
		<g>
			<g>
				<line class="st3" x1="318" y1="614.9" x2="386.9" y2="586.4"/>
				<line class="st3" x1="377.3" y1="590.4" x2="382.3" y2="578.4"/>
				<line class="st3" x1="389.2" y1="595.3" x2="377.3" y2="590.4"/>
				<line class="st3" x1="327.8" y1="610.8" x2="322.9" y2="622.8"/>
				<line class="st3" x1="316" y1="605.9" x2="327.8" y2="610.8"/>
			</g>
			<g>
				<line class="st3" x1="338.4" y1="635.2" x2="366.9" y2="566.2"/>
				<line class="st3" x1="362.9" y1="575.8" x2="358" y2="563.9"/>
				<line class="st3" x1="374.8" y1="570.9" x2="362.9" y2="575.8"/>
				<line class="st3" x1="342.4" y1="625.3" x2="347.3" y2="637.3"/>
				<line class="st3" x1="330.5" y1="630.3" x2="342.4" y2="625.3"/>
			</g>
			<g>
				<line class="st3" x1="367" y1="635" x2="338.4" y2="566.1"/>
				<line class="st3" x1="342.4" y1="575.7" x2="330.5" y2="570.8"/>
				<line class="st3" x1="347.3" y1="563.8" x2="342.4" y2="575.7"/>
				<line class="st3" x1="362.9" y1="625.2" x2="374.8" y2="630.2"/>
				<line class="st3" x1="358" y1="637.1" x2="362.9" y2="625.2"/>
			</g>
			<g>
				<line class="st3" x1="387.4" y1="615.1" x2="318.4" y2="586.5"/>
				<line class="st3" x1="328" y1="590.5" x2="316.1" y2="595.4"/>
				<line class="st3" x1="323.1" y1="578.6" x2="328" y2="590.5"/>
				<line class="st3" x1="377.5" y1="611" x2="389.5" y2="606.1"/>
				<line class="st3" x1="382.4" y1="622.9" x2="377.5" y2="611"/>
			</g>
		</g>
	</g>
	<g>
		<g>
			<g>
				<line class="st2" x1="1096.1" y1="107.7" x2="1198.5" y2="107.7"/>
				<line class="st2" x1="1184.2" y1="107.7" x2="1196.8" y2="95.2"/>
				<line class="st2" x1="1196.7" y1="120.2" x2="1184.2" y2="107.7"/>
				<line class="st2" x1="1110.7" y1="107.7" x2="1098.2" y2="120.2"/>
				<line class="st2" x1="1098.3" y1="95.2" x2="1110.7" y2="107.7"/>
			</g>
			<g>
				<line class="st2" x1="1111.3" y1="144" x2="1183.7" y2="71.7"/>
				<line class="st2" x1="1173.6" y1="81.7" x2="1173.6" y2="64"/>
				<line class="st2" x1="1191.2" y1="81.7" x2="1173.6" y2="81.7"/>
				<line class="st2" x1="1121.6" y1="133.7" x2="1121.6" y2="151.4"/>
				<line class="st2" x1="1104" y1="133.7" x2="1121.6" y2="133.7"/>
			</g>
			<g>
				<line class="st2" x1="1147.6" y1="158.9" x2="1147.6" y2="56.6"/>
				<line class="st2" x1="1147.6" y1="70.8" x2="1135.1" y2="58.3"/>
				<line class="st2" x1="1160.1" y1="58.3" x2="1147.6" y2="70.8"/>
				<line class="st2" x1="1147.6" y1="144.3" x2="1160.1" y2="156.8"/>
				<line class="st2" x1="1135.1" y1="156.8" x2="1147.6" y2="144.3"/>
			</g>
			<g>
				<line class="st2" x1="1184" y1="144.3" x2="1111.6" y2="71.9"/>
				<line class="st2" x1="1121.7" y1="82" x2="1103.9" y2="82"/>
				<line class="st2" x1="1121.7" y1="64.4" x2="1121.7" y2="82"/>
				<line class="st2" x1="1173.6" y1="134" x2="1191.3" y2="134"/>
				<line class="st2" x1="1173.6" y1="151.6" x2="1173.6" y2="134"/>
			</g>
		</g>
		<g>
			<g>
				<line class="st3" x1="1113" y1="122.1" x2="1182" y2="93.6"/>
				<line class="st3" x1="1172.4" y1="97.5" x2="1177.3" y2="85.6"/>
				<line class="st3" x1="1184.3" y1="102.5" x2="1172.4" y2="97.5"/>
				<line class="st3" x1="1122.9" y1="118" x2="1117.9" y2="130"/>
				<line class="st3" x1="1111" y1="113.1" x2="1122.9" y2="118"/>
			</g>
			<g>
				<line class="st3" x1="1133.4" y1="142.4" x2="1162" y2="73.4"/>
				<line class="st3" x1="1158" y1="83" x2="1153" y2="71.1"/>
				<line class="st3" x1="1169.8" y1="78.1" x2="1158" y2="83"/>
				<line class="st3" x1="1137.4" y1="132.5" x2="1142.4" y2="144.4"/>
				<line class="st3" x1="1125.6" y1="137.4" x2="1137.4" y2="132.5"/>
			</g>
			<g>
				<line class="st3" x1="1162" y1="142.2" x2="1133.5" y2="73.3"/>
				<line class="st3" x1="1137.4" y1="82.9" x2="1125.5" y2="77.9"/>
				<line class="st3" x1="1142.4" y1="71" x2="1137.4" y2="82.9"/>
				<line class="st3" x1="1157.9" y1="132.4" x2="1169.9" y2="137.3"/>
				<line class="st3" x1="1153" y1="144.3" x2="1157.9" y2="132.4"/>
			</g>
			<g>
				<line class="st3" x1="1182.4" y1="122.3" x2="1113.5" y2="93.7"/>
				<line class="st3" x1="1123.1" y1="97.7" x2="1111.1" y2="102.6"/>
				<line class="st3" x1="1118.1" y1="85.8" x2="1123.1" y2="97.7"/>
				<line class="st3" x1="1172.6" y1="118.2" x2="1184.5" y2="113.3"/>
				<line class="st3" x1="1177.5" y1="130.1" x2="1172.6" y2="118.2"/>
			</g>
		</g>
	</g>
	<g>
		<g>
			<g>
				<line class="st2" x1="1057.3" y1="608.6" x2="1159.7" y2="608.6"/>
				<line class="st2" x1="1145.4" y1="608.6" x2="1158" y2="596"/>
				<line class="st2" x1="1157.9" y1="621" x2="1145.4" y2="608.6"/>
				<line class="st2" x1="1071.9" y1="608.5" x2="1059.4" y2="621.1"/>
				<line class="st2" x1="1059.5" y1="596.1" x2="1071.9" y2="608.5"/>
			</g>
			<g>
				<line class="st2" x1="1072.5" y1="644.9" x2="1144.9" y2="572.5"/>
				<line class="st2" x1="1134.8" y1="582.6" x2="1134.8" y2="564.9"/>
				<line class="st2" x1="1152.4" y1="582.6" x2="1134.8" y2="582.6"/>
				<line class="st2" x1="1082.8" y1="634.5" x2="1082.8" y2="652.3"/>
				<line class="st2" x1="1065.2" y1="634.5" x2="1082.8" y2="634.5"/>
			</g>
			<g>
				<line class="st2" x1="1108.8" y1="659.7" x2="1108.8" y2="557.4"/>
				<line class="st2" x1="1108.8" y1="571.6" x2="1096.3" y2="559.1"/>
				<line class="st2" x1="1121.3" y1="559.2" x2="1108.8" y2="571.6"/>
				<line class="st2" x1="1108.8" y1="645.1" x2="1121.3" y2="657.7"/>
				<line class="st2" x1="1096.3" y1="657.6" x2="1108.8" y2="645.1"/>
			</g>
			<g>
				<line class="st2" x1="1145.2" y1="645.1" x2="1072.8" y2="572.8"/>
				<line class="st2" x1="1082.9" y1="582.8" x2="1065.1" y2="582.8"/>
				<line class="st2" x1="1082.9" y1="565.2" x2="1082.9" y2="582.8"/>
				<line class="st2" x1="1134.8" y1="634.8" x2="1152.5" y2="634.8"/>
				<line class="st2" x1="1134.8" y1="652.5" x2="1134.8" y2="634.8"/>
			</g>
		</g>
		<g>
			<g>
				<line class="st3" x1="1074.3" y1="623" x2="1143.2" y2="594.4"/>
				<line class="st3" x1="1133.6" y1="598.4" x2="1138.5" y2="586.4"/>
				<line class="st3" x1="1145.5" y1="603.3" x2="1133.6" y2="598.4"/>
				<line class="st3" x1="1084.1" y1="618.9" x2="1079.1" y2="630.8"/>
				<line class="st3" x1="1072.2" y1="613.9" x2="1084.1" y2="618.9"/>
			</g>
			<g>
				<line class="st3" x1="1094.6" y1="643.2" x2="1123.2" y2="574.3"/>
				<line class="st3" x1="1119.2" y1="583.8" x2="1114.2" y2="571.9"/>
				<line class="st3" x1="1131.1" y1="578.9" x2="1119.2" y2="583.8"/>
				<line class="st3" x1="1098.7" y1="633.3" x2="1103.6" y2="645.3"/>
				<line class="st3" x1="1086.8" y1="638.3" x2="1098.7" y2="633.3"/>
			</g>
			<g>
				<line class="st3" x1="1123.2" y1="643.1" x2="1094.7" y2="574.1"/>
				<line class="st3" x1="1098.6" y1="583.7" x2="1086.7" y2="578.8"/>
				<line class="st3" x1="1103.6" y1="571.8" x2="1098.6" y2="583.7"/>
				<line class="st3" x1="1119.1" y1="633.2" x2="1131.1" y2="638.2"/>
				<line class="st3" x1="1114.2" y1="645.1" x2="1119.1" y2="633.2"/>
			</g>
			<g>
				<line class="st3" x1="1143.6" y1="623.1" x2="1074.7" y2="594.5"/>
				<line class="st3" x1="1084.3" y1="598.5" x2="1072.3" y2="603.5"/>
				<line class="st3" x1="1079.4" y1="586.6" x2="1084.3" y2="598.5"/>
				<line class="st3" x1="1133.8" y1="619" x2="1145.7" y2="614.1"/>
				<line class="st3" x1="1138.7" y1="630.9" x2="1133.8" y2="619"/>
			</g>
		</g>
	</g>
	<g>
		<g>
			<g>
				<line class="st2" x1="61.6" y1="342.5" x2="163.9" y2="342.5"/>
				<line class="st2" x1="149.7" y1="342.5" x2="162.2" y2="330"/>
				<line class="st2" x1="162.1" y1="355" x2="149.7" y2="342.5"/>
				<line class="st2" x1="76.2" y1="342.5" x2="63.6" y2="355"/>
				<line class="st2" x1="63.7" y1="330" x2="76.2" y2="342.5"/>
			</g>
			<g>
				<line class="st2" x1="76.7" y1="378.8" x2="149.1" y2="306.4"/>
				<line class="st2" x1="139" y1="316.5" x2="139" y2="298.8"/>
				<line class="st2" x1="156.7" y1="316.5" x2="139" y2="316.5"/>
				<line class="st2" x1="87" y1="368.5" x2="87" y2="386.2"/>
				<line class="st2" x1="69.4" y1="368.5" x2="87" y2="368.5"/>
			</g>
			<g>
				<line class="st2" x1="113.1" y1="393.7" x2="113.1" y2="291.3"/>
				<line class="st2" x1="113.1" y1="305.6" x2="100.6" y2="293"/>
				<line class="st2" x1="125.5" y1="293.1" x2="113.1" y2="305.6"/>
				<line class="st2" x1="113.1" y1="379.1" x2="125.6" y2="391.6"/>
				<line class="st2" x1="100.6" y1="391.5" x2="113.1" y2="379.1"/>
			</g>
			<g>
				<line class="st2" x1="149.4" y1="379.1" x2="77" y2="306.7"/>
				<line class="st2" x1="87.1" y1="316.8" x2="69.4" y2="316.8"/>
				<line class="st2" x1="87.1" y1="299.2" x2="87.1" y2="316.8"/>
				<line class="st2" x1="139.1" y1="368.8" x2="156.8" y2="368.8"/>
				<line class="st2" x1="139.1" y1="386.4" x2="139.1" y2="368.8"/>
			</g>
		</g>
		<g>
			<g>
				<line class="st3" x1="78.5" y1="356.9" x2="147.4" y2="328.3"/>
				<line class="st3" x1="137.8" y1="332.3" x2="142.8" y2="320.4"/>
				<line class="st3" x1="149.7" y1="337.2" x2="137.8" y2="332.3"/>
				<line class="st3" x1="88.3" y1="352.8" x2="83.4" y2="364.7"/>
				<line class="st3" x1="76.4" y1="347.9" x2="88.3" y2="352.8"/>
			</g>
			<g>
				<line class="st3" x1="98.8" y1="377.1" x2="127.4" y2="308.2"/>
				<line class="st3" x1="123.4" y1="317.8" x2="118.5" y2="305.9"/>
				<line class="st3" x1="135.3" y1="312.9" x2="123.4" y2="317.8"/>
				<line class="st3" x1="102.9" y1="367.3" x2="107.8" y2="379.2"/>
				<line class="st3" x1="91" y1="372.2" x2="102.9" y2="367.3"/>
			</g>
			<g>
				<line class="st3" x1="127.5" y1="377" x2="98.9" y2="308.1"/>
				<line class="st3" x1="102.9" y1="317.7" x2="91" y2="312.7"/>
				<line class="st3" x1="107.8" y1="305.8" x2="102.9" y2="317.7"/>
				<line class="st3" x1="123.4" y1="367.2" x2="135.3" y2="372.1"/>
				<line class="st3" x1="118.5" y1="379" x2="123.4" y2="367.2"/>
			</g>
			<g>
				<line class="st3" x1="147.9" y1="357" x2="78.9" y2="328.5"/>
				<line class="st3" x1="88.5" y1="332.5" x2="76.6" y2="337.4"/>
				<line class="st3" x1="83.6" y1="320.6" x2="88.5" y2="332.5"/>
				<line class="st3" x1="138" y1="353" x2="150" y2="348"/>
				<line class="st3" x1="142.9" y1="364.9" x2="138" y2="353"/>
			</g>
		</g>
	</g>
	<g>
		<g>
			<g>
				<line class="st2" x1="730.6" y1="54.5" x2="832.9" y2="54.5"/>
				<line class="st2" x1="818.7" y1="54.5" x2="831.2" y2="42"/>
				<line class="st2" x1="831.1" y1="67" x2="818.7" y2="54.5"/>
				<line class="st2" x1="745.1" y1="54.5" x2="732.6" y2="67"/>
				<line class="st2" x1="732.7" y1="42" x2="745.1" y2="54.5"/>
			</g>
			<g>
				<line class="st2" x1="745.7" y1="90.8" x2="818.1" y2="18.5"/>
				<line class="st2" x1="808" y1="28.5" x2="808" y2="10.8"/>
				<line class="st2" x1="825.7" y1="28.5" x2="808" y2="28.5"/>
				<line class="st2" x1="756" y1="80.5" x2="756" y2="98.2"/>
				<line class="st2" x1="738.4" y1="80.5" x2="756" y2="80.5"/>
			</g>
			<g>
				<line class="st2" x1="782.1" y1="105.7" x2="782.1" y2="3.3"/>
				<line class="st2" x1="782.1" y1="17.6" x2="769.5" y2="5"/>
				<line class="st2" x1="794.5" y1="5.1" x2="782.1" y2="17.6"/>
				<line class="st2" x1="782" y1="91.1" x2="794.6" y2="103.6"/>
				<line class="st2" x1="769.6" y1="103.5" x2="782" y2="91.1"/>
			</g>
			<g>
				<line class="st2" x1="818.4" y1="91.1" x2="746" y2="18.7"/>
				<line class="st2" x1="756.1" y1="28.8" x2="738.4" y2="28.8"/>
				<line class="st2" x1="756.1" y1="11.2" x2="756.1" y2="28.8"/>
				<line class="st2" x1="808" y1="80.8" x2="825.8" y2="80.8"/>
				<line class="st2" x1="808" y1="98.4" x2="808" y2="80.8"/>
			</g>
		</g>
		<g>
			<g>
				<line class="st3" x1="747.5" y1="68.9" x2="816.4" y2="40.3"/>
				<line class="st3" x1="806.8" y1="44.3" x2="811.8" y2="32.4"/>
				<line class="st3" x1="818.7" y1="49.2" x2="806.8" y2="44.3"/>
				<line class="st3" x1="757.3" y1="64.8" x2="752.4" y2="76.7"/>
				<line class="st3" x1="745.4" y1="59.9" x2="757.3" y2="64.8"/>
			</g>
			<g>
				<line class="st3" x1="767.8" y1="89.1" x2="796.4" y2="20.2"/>
				<line class="st3" x1="792.4" y1="29.8" x2="787.5" y2="17.9"/>
				<line class="st3" x1="804.3" y1="24.9" x2="792.4" y2="29.8"/>
				<line class="st3" x1="771.9" y1="79.3" x2="776.8" y2="91.2"/>
				<line class="st3" x1="760" y1="84.2" x2="771.9" y2="79.3"/>
			</g>
			<g>
				<line class="st3" x1="796.4" y1="89" x2="767.9" y2="20.1"/>
				<line class="st3" x1="771.9" y1="29.7" x2="759.9" y2="24.7"/>
				<line class="st3" x1="776.8" y1="17.8" x2="771.9" y2="29.7"/>
				<line class="st3" x1="792.4" y1="79.2" x2="804.3" y2="84.1"/>
				<line class="st3" x1="787.4" y1="91" x2="792.4" y2="79.2"/>
			</g>
			<g>
				<line class="st3" x1="816.8" y1="69" x2="747.9" y2="40.5"/>
				<line class="st3" x1="757.5" y1="44.5" x2="745.6" y2="49.4"/>
				<line class="st3" x1="752.6" y1="32.6" x2="757.5" y2="44.5"/>
				<line class="st3" x1="807" y1="65" x2="818.9" y2="60"/>
				<line class="st3" x1="811.9" y1="76.9" x2="807" y2="65"/>
			</g>
		</g>
	</g>
</g>
</svg>
